<svg width="22" height="18" viewBox="0 0 22 18" fill="none" xmlns="http://www.w3.org/2000/svg">
<path d="M3.65 0.599854H18.35C19.1854 0.599854 19.9866 0.931728 20.5774 1.52247C21.1681 2.11321 21.5 2.91442 21.5 3.74985V14.2499C21.5 15.0853 21.1681 15.8865 20.5774 16.4772C19.9866 17.068 19.1854 17.3999 18.35 17.3999H3.65C2.81457 17.3999 2.01335 17.068 1.42261 16.4772C0.831875 15.8865 0.500001 15.0853 0.500001 14.2499V3.74985C0.500001 2.91442 0.831875 2.11321 1.42261 1.52247C2.01335 0.931728 2.81457 0.599854 3.65 0.599854V0.599854ZM3.65 2.69985L10.475 7.39335C10.6346 7.48551 10.8157 7.53403 11 7.53403C11.1843 7.53403 11.3654 7.48551 11.525 7.39335L18.35 2.69985H3.65Z" fill="#F8F8F8"/>
</svg>
