<svg width="21" height="25" viewBox="0 0 21 25" fill="none" xmlns="http://www.w3.org/2000/svg">
<path d="M4.38729 4.18449C4.87239 3.87416 5.44914 3.73934 6.02154 3.80247C6.59394 3.8656 7.12745 4.12287 7.53326 4.53146L7.67418 4.68665L8.98225 6.24229C9.37925 6.71447 9.62867 7.29295 9.69951 7.90577C9.77034 8.51859 9.65944 9.13871 9.38062 9.68901L9.26477 9.89473L8.33485 11.4327C8.16813 11.7131 8.57586 12.4998 9.80504 13.6941C10.9112 14.7687 11.6851 15.1976 11.9913 15.1461L12.0435 15.1314L12.1043 15.101L14.3738 13.6364C14.6788 13.4393 15.034 13.3341 15.3971 13.3336C15.7602 13.3331 16.1158 13.4372 16.4213 13.6334L16.5711 13.7415L18.8623 15.5541C19.3113 15.9094 19.626 16.407 19.7544 16.965C19.8829 17.523 19.8175 18.1081 19.569 18.624L19.4644 18.8186L18.984 19.628C18.5524 20.354 17.9215 20.9408 17.1661 21.3187C16.4107 21.6965 15.5627 21.8495 14.7229 21.7595C12.1092 21.479 9.36566 19.9231 6.47907 17.119C3.58645 14.3074 1.9496 11.606 1.59817 8.99466C1.49205 8.20524 1.60171 7.40183 1.91551 6.66973C2.22931 5.93763 2.73553 5.30419 3.38041 4.83668L3.59237 4.69276L4.38729 4.18449Z" fill="#F8F8F8"/>
</svg>
