<svg width="14" height="24" viewBox="0 0 14 24" fill="none" xmlns="http://www.w3.org/2000/svg">
<path d="M0.619999 22.58C0.434592 22.3949 0.287497 22.1752 0.187134 21.9332C0.0867707 21.6913 0.0351103 21.4319 0.0351103 21.17C0.0351103 20.908 0.0867706 20.6487 0.187134 20.4067C0.287496 20.1648 0.434592 19.945 0.619999 19.76L8.38 12L0.619997 4.23995C0.246042 3.866 0.0359556 3.35881 0.0359556 2.82996C0.0359555 2.3011 0.246042 1.79391 0.619997 1.41995C0.993952 1.046 1.50114 0.835914 2.03 0.835914C2.55885 0.835914 3.06604 1.046 3.44 1.41995L12.62 10.6C12.8054 10.785 12.9525 11.0048 13.0529 11.2467C13.1532 11.4887 13.2049 11.748 13.2049 12.01C13.2049 12.2719 13.1532 12.5313 13.0529 12.7732C12.9525 13.0151 12.8054 13.2349 12.62 13.42L3.44 22.6C2.68 23.36 1.4 23.36 0.619999 22.58Z" fill="white"/>
</svg>
